<svg width="998" height="135" viewBox="0 0 998 135" fill="none" xmlns="http://www.w3.org/2000/svg">
<path d="M46.9077 38.5629C42.0975 40.3801 36.731 42.0405 31.5332 42.9918C30.7049 44.832 29.755 46.6566 28.9077 48.5629C28.484 49.5163 27.6602 50.5227 26.7159 51.548C26.0135 51.535 25.3272 51.5273 24.6855 51.5629C13.6751 52.1746 13.9464 63.2658 15.4633 71.2296C16.5274 76.8162 14.6799 80.3382 13.63 85.0629C12.8475 88.5841 8.02914 94.3826 10.9077 98.3407C12.264 100.206 23.3735 102.563 25.6855 102.563C30.4807 102.563 38.883 103.673 43.1855 106.063C47.8653 108.663 55.3532 107.915 60.6855 109.563C73.8798 113.641 87.3208 118.302 101.186 119.507C113.174 120.55 125.652 119.563 137.686 119.563C151.857 119.563 167.033 121.031 180.686 116.563C195.279 111.787 210.525 112.563 225.686 112.563C240.696 112.563 255.592 115.563 270.463 115.563C289.84 115.563 307.868 124.563 327.186 124.563C336.475 124.563 344.646 119.563 353.463 119.563C363.257 119.563 373.352 113.41 382.741 111.063C395.226 107.942 408.79 107.745 421.686 107.563C437.327 107.343 452.987 107.563 468.63 107.563C484.609 107.563 499.688 109.567 515.463 111.785C522.505 112.775 529.603 113.03 536.63 114.063C541.89 114.836 547.253 116.563 552.574 116.563C559.229 116.563 565.618 119.563 572.463 119.563C576.88 119.563 581.542 120.034 585.908 119.341C591.135 118.511 595.609 115.708 600.352 113.563C605.99 111.014 611.909 109.477 617.685 107.341C629.671 102.908 643.945 103.563 656.685 103.563C669.244 103.563 681.625 102.563 694.241 102.563H774.741C789.223 102.563 805.229 103.177 819.463 106.341C828.123 108.265 837.688 115.563 846.63 115.563C850.741 115.563 855.409 114.542 859.463 113.341C863.219 112.228 866.328 110.191 869.908 108.785C874.562 106.957 876.149 102.836 880.241 100.563C886.703 96.973 893.034 92.6197 899.149 88.4147L899.741 88.0074C904.249 84.9082 909.473 84.6085 914.685 83.3407C917.597 82.6324 921.062 80.7737 923.908 80.5629C930.719 80.0583 937.734 77.4804 944.63 76.6185C953.104 75.5592 962.336 74.6405 970.685 72.7851C974.986 71.8294 983.205 72.4936 984.741 67.1185C986.21 61.9756 989.145 59.2251 986.463 53.5629C984.648 49.7316 982.85 35.655 978.185 34.6185C972.39 33.3306 965.185 34.5629 959.241 34.5629C949.199 34.5629 939.554 27.5498 929.685 26.5629C925.692 26.1636 921.623 25.2285 917.63 24.5629C912.543 23.715 906.601 24.5817 901.741 23.0629C892.453 20.1603 881.372 21.6042 871.685 20.3407C859.909 18.8046 847.785 19.5629 835.908 19.5629C824.38 19.5629 810.792 21.5512 799.63 18.0629C789.232 14.8136 780.228 10.5629 769.13 10.5629C756.298 10.5629 741.497 8.39679 729.297 12.5629C721.189 15.3315 715.077 18.4028 708.185 23.5074C702.343 27.8351 695.595 32.6324 688.685 35.0074C674.785 39.7855 658.549 47.8332 643.685 47.5629C625.307 47.2288 607.14 39.7131 589.63 34.5629C581.737 32.2416 573.019 34.1418 564.908 33.3407C555.006 32.3628 545.462 31.6501 535.685 29.5629C523.33 26.9253 511.458 21.5629 498.686 21.5629C492.077 21.5629 485.599 19.5629 478.908 19.5629C470.951 19.5629 462.589 18.8108 454.686 19.7851C437.168 21.9448 420.053 24.659 402.63 27.5629C389.312 29.7825 376.197 27.5629 362.908 27.5629C349.178 27.5629 336.277 29.2537 322.686 30.7851C305.844 32.6828 289.924 35.7707 273.63 40.5629C261.385 44.1645 245.604 41.4832 233.463 38.7851C223.238 36.5128 213.782 33.5629 203.241 33.5629C184.33 33.5629 166.919 37.4054 150.13 46.5629C139.225 52.5113 127.478 56.8805 115.241 54.3407C102.079 51.609 95.0367 35.048 80.7411 33.6185C68.8115 32.4255 58.0121 34.3679 46.9077 38.5629Z" fill="#111212"/>
<path d="M27.6855 43.5629C34.0187 42.8592 40.8974 40.8335 46.9077 38.5629C58.0121 34.3679 68.8115 32.4255 80.7411 33.6185C95.0367 35.048 102.079 51.609 115.241 54.3407C127.478 56.8805 139.225 52.5113 150.13 46.5629C166.919 37.4054 184.33 33.5629 203.241 33.5629C213.782 33.5629 223.238 36.5128 233.463 38.7851C245.604 41.4832 261.385 44.1645 273.63 40.5629C289.924 35.7707 305.844 32.6828 322.686 30.7851C336.277 29.2537 349.178 27.5629 362.908 27.5629C376.197 27.5629 389.312 29.7825 402.63 27.5629C420.053 24.659 437.168 21.9448 454.686 19.7851C462.589 18.8108 470.951 19.5629 478.908 19.5629C485.599 19.5629 492.077 21.5629 498.686 21.5629C511.458 21.5629 523.33 26.9253 535.685 29.5629C545.462 31.6501 555.006 32.3628 564.908 33.3407C573.019 34.1418 581.737 32.2416 589.63 34.5629C607.14 39.7131 625.307 47.2288 643.685 47.5629C658.549 47.8332 674.785 39.7855 688.685 35.0074C695.595 32.6324 702.343 27.8351 708.185 23.5074C715.077 18.4028 721.189 15.3315 729.297 12.5629C741.497 8.39679 756.298 10.5629 769.13 10.5629C780.228 10.5629 789.232 14.8136 799.63 18.0629C810.792 21.5512 824.38 19.5629 835.908 19.5629C847.785 19.5629 859.909 18.8046 871.685 20.3407C881.372 21.6042 892.453 20.1603 901.741 23.0629C906.601 24.5817 912.543 23.715 917.63 24.5629C921.623 25.2285 925.692 26.1636 929.685 26.5629C939.554 27.5498 949.199 34.5629 959.241 34.5629C965.185 34.5629 972.39 33.3306 978.185 34.6185C982.85 35.655 984.648 49.7316 986.463 53.5629C989.145 59.2251 986.21 61.9756 984.741 67.1185C983.205 72.4936 974.986 71.8294 970.685 72.7851C962.336 74.6405 953.104 75.5592 944.63 76.6185C937.734 77.4804 930.719 80.0583 923.908 80.5629C921.062 80.7737 917.597 82.6324 914.685 83.3407C909.473 84.6085 904.249 84.9082 899.741 88.0074L899.149 88.4147C893.034 92.6197 886.703 96.973 880.241 100.563C876.149 102.836 874.562 106.957 869.908 108.785C866.328 110.191 863.219 112.228 859.463 113.341C855.409 114.542 850.741 115.563 846.63 115.563C837.688 115.563 828.123 108.265 819.463 106.341C805.229 103.177 789.223 102.563 774.741 102.563H694.241C681.625 102.563 669.244 103.563 656.685 103.563C643.945 103.563 629.671 102.908 617.685 107.341C611.909 109.477 605.99 111.014 600.352 113.563C595.609 115.708 591.135 118.511 585.908 119.341C581.542 120.034 576.88 119.563 572.463 119.563C565.618 119.563 559.229 116.563 552.574 116.563C547.253 116.563 541.89 114.836 536.63 114.063C529.603 113.03 522.505 112.775 515.463 111.785C499.688 109.567 484.609 107.563 468.63 107.563C452.987 107.563 437.327 107.343 421.686 107.563C408.79 107.745 395.226 107.942 382.741 111.063C373.352 113.41 363.257 119.563 353.463 119.563C344.646 119.563 336.475 124.563 327.186 124.563C307.868 124.563 289.84 115.563 270.463 115.563C255.592 115.563 240.696 112.563 225.686 112.563C210.525 112.563 195.279 111.787 180.686 116.563C167.033 121.031 151.857 119.563 137.686 119.563C125.652 119.563 113.174 120.55 101.186 119.507C87.3208 118.302 73.8798 113.641 60.6855 109.563C55.3532 107.915 47.8653 108.663 43.1855 106.063C38.883 103.673 30.4807 102.563 25.6855 102.563C23.3735 102.563 12.264 100.206 10.9077 98.3407C8.02914 94.3826 12.8475 88.5841 13.63 85.0629C14.6799 80.3382 16.5274 76.8162 15.4633 71.2296C13.9464 63.2658 13.6751 52.1746 24.6855 51.5629C28.3502 51.3593 33.4694 52.5694 34.7411 48.1185C35.6763 44.8451 43.1666 44.7233 45.6855 45.5629M33.6855 34.5629C33.6855 39.6969 30.9873 43.8838 28.9077 48.5629C27.501 51.7281 21.6855 55.4773 21.6855 58.5629" stroke="#111212" stroke-width="20" stroke-linecap="round"/>
</svg>
